<svg width="48" height="25" viewBox="0 0 48 25" fill="none" xmlns="http://www.w3.org/2000/svg">
<rect width="48" height="24.5" rx="12" fill="#DBE1FF"/>
<path d="M22.75 18.5H17.75C16.0208 18.5 14.5469 17.8906 13.3281 16.6719C12.1094 15.4531 11.5 13.9792 11.5 12.25C11.5 10.5208 12.1094 9.04688 13.3281 7.82812C14.5469 6.60938 16.0208 6 17.75 6H22.75V8.5H17.75C16.7083 8.5 15.8229 8.86458 15.0938 9.59375C14.3646 10.3229 14 11.2083 14 12.25C14 13.2917 14.3646 14.1771 15.0938 14.9062C15.8229 15.6354 16.7083 16 17.75 16H22.75V18.5ZM19 13.5V11H29V13.5H19ZM25.25 18.5V16H30.25C31.2917 16 32.1771 15.6354 32.9062 14.9062C33.6354 14.1771 34 13.2917 34 12.25C34 11.2083 33.6354 10.3229 32.9062 9.59375C32.1771 8.86458 31.2917 8.5 30.25 8.5H25.25V6H30.25C31.9792 6 33.4531 6.60938 34.6719 7.82812C35.8906 9.04688 36.5 10.5208 36.5 12.25C36.5 13.9792 35.8906 15.4531 34.6719 16.6719C33.4531 17.8906 31.9792 18.5 30.25 18.5H25.25Z" fill="#004AC6"/>
</svg>
